<svg width="391" height="206" viewBox="0 0 391 206" fill="none" xmlns="http://www.w3.org/2000/svg">
<path d="M299.067 164.546C257.073 110.049 285.447 46.5636 285.447 46.5636C285.447 46.5636 249.128 -11.8658 162.869 2.1797C97.6081 12.8543 53.344 81.3965 53.344 81.3965C53.344 81.3965 60.1538 56.1145 60.1538 38.6981C60.1538 22.4053 53.9115 13.9779 53.9115 13.9779C53.9115 13.9779 45.3991 29.7089 38.5893 31.3944C30.6444 33.6417 24.402 22.9671 24.402 22.9671C24.402 22.9671 20.9971 31.9562 24.402 51.0581C27.807 71.8455 38.5893 102.184 38.5893 102.184C38.5893 102.184 30.0769 116.791 24.402 133.084C16.4572 154.995 10.2148 181.401 10.2148 181.401L0 190.952C0 190.952 3.40493 195.446 9.07983 198.255C13.0522 200.502 19.2946 201.064 19.2946 201.064L22.6996 185.895C22.6996 185.895 35.7518 156.119 76.0435 135.893C79.4485 135.893 82.2859 135.893 85.6909 136.455C85.1234 150.5 73.7736 172.973 71.5036 187.019C68.0987 204.997 99.3106 143.759 110.66 156.119C110.66 156.68 111.228 156.68 111.228 157.242C111.795 157.804 111.795 157.804 112.363 158.366C127.685 178.591 143.007 203.873 141.305 190.39C138.467 170.726 123.713 138.14 132.792 125.78C137.332 117.353 149.25 111.173 162.869 111.173C174.787 111.173 185.001 115.668 190.676 122.409C207.134 130.275 182.731 165.67 177.057 191.513C173.652 206.121 196.351 174.097 216.213 154.995C234.94 149.939 266.72 207.806 261.612 189.828C255.938 169.602 246.29 150.5 255.37 144.882C259.343 147.13 261.612 148.815 261.612 148.815C261.612 148.815 269.557 168.479 296.229 185.895C339.358 213.986 391 204.435 391 204.435C391 204.435 328.576 202.188 299.067 164.546Z" fill="#77CCCC"/>
<path d="M53.344 81.3965C53.764 81.6677 53.7641 81.6676 53.7644 81.6672L53.7657 81.6651L53.7715 81.6562L53.795 81.62C53.8161 81.5877 53.8479 81.5391 53.8903 81.4748C53.9752 81.3461 54.1025 81.1544 54.2716 80.9035C54.6098 80.4018 55.1152 79.6632 55.7819 78.7188C57.1154 76.8299 59.0944 74.1175 61.6734 70.8285C66.8319 64.2498 74.3888 55.3668 83.9801 46.1516C103.172 27.7127 130.464 7.98699 162.95 2.6732C205.946 -4.32791 236.466 6.734 256.233 19.5243C266.121 25.9223 273.324 32.7566 278.053 37.9887C280.418 40.6046 282.163 42.8193 283.316 44.3777C283.892 45.1569 284.321 45.7719 284.604 46.1909C284.722 46.3649 284.814 46.505 284.882 46.6091C284.831 46.7297 284.761 46.8935 284.676 47.0989C284.477 47.5818 284.191 48.2953 283.842 49.2217C283.144 51.0743 282.196 53.7788 281.19 57.1934C279.179 64.0219 276.936 73.695 276.011 85.078C274.16 107.845 277.576 137.476 298.671 164.851L298.673 164.854C313.526 183.8 336.633 193.811 355.968 199.089C365.643 201.73 374.392 203.191 380.722 203.992C382.852 204.261 384.708 204.456 386.235 204.596C385.083 204.728 383.737 204.864 382.216 204.99C376.72 205.445 368.941 205.76 359.819 205.2C341.569 204.08 317.97 199.459 296.502 185.476C283.22 176.803 274.608 167.575 269.319 160.524C266.674 156.998 264.86 154.016 263.709 151.919C263.133 150.871 262.723 150.044 262.458 149.481C262.326 149.199 262.229 148.984 262.166 148.84C262.135 148.768 262.112 148.714 262.097 148.678L262.081 148.639L262.077 148.63L262.076 148.628L262.023 148.497L261.911 148.414L261.612 148.815C261.911 148.414 261.91 148.413 261.91 148.413L261.91 148.413L261.908 148.412L261.903 148.408L261.882 148.392C261.863 148.379 261.836 148.359 261.8 148.333C261.728 148.281 261.622 148.205 261.483 148.107C261.205 147.912 260.793 147.628 260.256 147.274C259.184 146.566 257.614 145.577 255.616 144.447L255.359 144.301L255.107 144.457C252.668 145.966 251.513 148.379 251.219 151.382C250.927 154.366 251.476 157.98 252.473 161.998C253.471 166.022 254.932 170.5 256.491 175.219C256.595 175.533 256.699 175.847 256.803 176.163C258.272 180.605 259.81 185.254 261.131 189.963L261.132 189.965C261.449 191.081 261.612 191.869 261.651 192.382C261.664 192.546 261.662 192.666 261.654 192.751C261.551 192.698 261.413 192.607 261.237 192.466C260.833 192.142 260.312 191.623 259.678 190.923C258.257 189.356 256.373 187.001 254.143 184.215C252.372 182.002 250.383 179.517 248.235 176.937C243.408 171.139 237.813 164.909 232.238 160.442C229.451 158.209 226.65 156.402 223.936 155.313C221.222 154.225 218.562 153.843 216.083 154.512L215.959 154.546L215.867 154.635C208.608 161.615 200.965 170.325 194.368 177.843C191.924 180.629 189.623 183.25 187.539 185.56C185.608 187.7 183.864 189.57 182.361 191.059C180.851 192.555 179.608 193.642 178.677 194.234C178.206 194.534 177.861 194.676 177.631 194.71C177.523 194.726 177.463 194.714 177.435 194.703C177.412 194.695 177.388 194.68 177.359 194.638C177.285 194.53 177.202 194.269 177.217 193.734C177.231 193.219 177.334 192.524 177.544 191.627L177.545 191.621C178.954 185.203 181.53 178.177 184.357 171.105C185.301 168.744 186.273 166.377 187.239 164.027C189.159 159.351 191.052 154.743 192.636 150.39C195.014 143.854 196.726 137.816 196.789 132.897C196.821 130.431 196.439 128.216 195.495 126.351C194.561 124.506 193.09 123.032 190.99 122.005C185.187 115.173 174.853 110.673 162.869 110.673C149.147 110.673 137.035 116.889 132.369 125.513C130.017 128.734 129.242 133.212 129.393 138.339C129.545 143.492 130.637 149.378 132.093 155.463C133.179 159.997 134.472 164.66 135.738 169.227C136.171 170.788 136.601 172.339 137.018 173.869C138.658 179.88 140.105 185.575 140.809 190.457C140.913 191.282 140.95 191.942 140.929 192.454C140.908 192.976 140.828 193.301 140.733 193.487C140.651 193.648 140.579 193.671 140.52 193.678C140.417 193.69 140.22 193.658 139.896 193.481C139.255 193.128 138.384 192.352 137.304 191.177C136.234 190.014 134.993 188.499 133.614 186.713C130.895 183.194 127.659 178.651 124.153 173.729L123.996 173.508C120.432 168.506 116.597 163.127 112.761 158.064L112.74 158.036L112.715 158.011L112.147 157.449L111.707 157.013C111.64 156.665 111.431 156.459 111.307 156.336L111.296 156.325C111.16 156.191 111.16 156.178 111.16 156.121V156.119V155.924L111.029 155.78C109.473 154.086 107.551 153.656 105.465 154.148C103.419 154.632 101.21 155.999 98.9551 157.876C94.438 161.639 89.5487 167.615 85.1516 173.372C83.5628 175.452 82.0402 177.501 80.6203 179.412C78.0896 182.817 75.8849 185.784 74.212 187.709C73.5615 188.458 73.0083 189.028 72.561 189.399C72.337 189.585 72.1543 189.708 72.0113 189.78C71.9253 189.823 71.8693 189.839 71.8379 189.846C71.8108 189.791 71.7736 189.674 71.7559 189.458C71.7173 188.986 71.7838 188.226 71.9949 187.112L71.9951 187.112L71.9972 187.099C72.9856 180.983 75.7131 173.244 78.5309 165.25C78.9229 164.137 79.3166 163.02 79.7076 161.902C82.8938 152.789 85.9031 143.586 86.1905 136.475L86.2083 136.034L85.7723 135.962C82.3269 135.393 79.4545 135.393 76.0594 135.393H76.0435H75.9251L75.8192 135.446C55.6032 145.594 42.2148 158.142 33.8778 168.159C29.7096 173.167 26.8042 177.543 24.9391 180.67C24.0065 182.234 23.334 183.486 22.8937 184.349C22.6736 184.78 22.5115 185.115 22.4039 185.342C22.3502 185.456 22.3101 185.543 22.2832 185.602C22.2768 185.616 22.2712 185.628 22.2664 185.639L22.2527 185.67L22.2447 185.687L22.2426 185.692L22.242 185.694C22.2418 185.694 22.2416 185.694 22.6996 185.895L22.2416 185.694L22.2223 185.739L22.2117 185.786L18.9045 200.52C18.7477 200.501 18.5524 200.477 18.3244 200.446C17.6856 200.359 16.7926 200.221 15.7772 200.013C13.7359 199.595 11.2434 198.905 9.32602 197.82L9.31401 197.813L9.30164 197.807C6.52137 196.431 4.29168 194.639 2.75525 193.187C1.98788 192.461 1.39575 191.823 0.996666 191.368C0.872485 191.226 0.76706 191.103 0.680927 190.999L10.5563 181.766L10.6666 181.663L10.7014 181.516L10.2148 181.401C10.7014 181.516 10.7014 181.516 10.7015 181.515L10.7017 181.514L10.7025 181.511L10.7059 181.497L10.7194 181.44L10.7731 181.215C10.8206 181.017 10.8914 180.723 10.9844 180.341C11.1703 179.578 11.4448 178.462 11.7992 177.054C12.5079 174.239 13.5356 170.257 14.8114 165.591C17.3635 156.256 20.9063 144.192 24.8721 133.254L24.8742 133.248C27.7022 125.129 31.2392 117.425 34.0712 111.747C35.4867 108.909 36.7252 106.58 37.6094 104.96C38.0515 104.151 38.4049 103.519 38.6477 103.089C38.769 102.875 38.8627 102.711 38.9259 102.601L38.9974 102.477L39.0155 102.446L39.0199 102.438L39.021 102.436L39.0212 102.436L38.5893 102.184M53.344 81.3965C52.8612 81.2664 52.8612 81.2664 52.8612 81.2662L52.8615 81.2654L52.8623 81.2621L52.8659 81.2487L52.8804 81.1947C52.8931 81.1468 52.9121 81.0752 52.9369 80.981C52.9866 80.7925 53.0595 80.5134 53.1523 80.1518C53.338 79.4285 53.6034 78.3752 53.922 77.0566C54.5593 74.4191 55.409 70.7212 56.2587 66.4802C57.9597 57.9899 59.6538 47.3549 59.6538 38.6981C59.6538 30.6169 58.106 24.4964 56.5647 20.4044C55.794 18.358 55.0246 16.8182 54.4506 15.7937C54.2586 15.4509 54.0885 15.1658 53.9475 14.9388C53.7003 15.3736 53.3461 15.9854 52.9033 16.7203C51.9942 18.229 50.7099 20.2601 49.21 22.346C47.7117 24.4298 45.99 26.5799 44.2053 28.32C42.4351 30.046 40.5501 31.4215 38.7174 31.8777C34.4874 33.0701 30.7641 30.8097 28.1748 28.3887C26.8689 27.1676 25.82 25.878 25.0986 24.8959C24.8957 24.6197 24.7183 24.3673 24.5679 24.1468C24.5189 24.3329 24.4657 24.5451 24.4102 24.7836C24.1493 25.9026 23.8338 27.6006 23.6231 29.8951C23.2017 34.4837 23.1993 41.4616 24.8943 50.9704L24.8955 50.9773L24.8955 50.9773C26.5922 61.3362 30.1307 74.0911 33.2505 84.2697C34.8096 89.3561 36.2623 93.7937 37.3253 96.9595C37.8568 98.5424 38.2907 99.8071 38.5918 100.676C38.7423 101.11 38.8595 101.446 38.9391 101.672C38.9789 101.786 39.0093 101.872 39.0297 101.93L39.0527 101.995L39.0585 102.011L39.0599 102.015L39.0603 102.016C39.0604 102.016 39.0604 102.016 38.5893 102.184M53.344 81.3965L53.764 81.6677L52.8612 81.2664L53.344 81.3965ZM38.5893 102.184L39.0604 102.016L39.1381 102.235L39.0213 102.436L38.5893 102.184Z" stroke="black" stroke-opacity="0.1"/>
</svg>
