<?xml version="1.0" encoding="utf-8"?>
<!-- Generator: Adobe Illustrator 24.3.0, SVG Export Plug-In . SVG Version: 6.00 Build 0)  -->
<svg version="1.1" id="Logo_aardwark" xmlns="http://www.w3.org/2000/svg" xmlns:xlink="http://www.w3.org/1999/xlink" x="0px"
	 y="0px" viewBox="0 0 425.2 113.4" style="enable-background:new 0 0 425.2 113.4;" xml:space="preserve">
<style type="text/css">
	.st0{fill-rule:evenodd;clip-rule:evenodd;fill:#D2AADC;}
	.st1{fill:#D2AADC;}
	.st2{fill:#AA78C6;}
	.st3{fill-rule:evenodd;clip-rule:evenodd;fill:#7350AA;}
</style>
<g>
	<path class="st0" d="M380.3,74.9c0-4.1-2.2-7.9-7.9-7.9h-5.2v13.8h-9.5V27.9h9.5V58h5.2c5.7,0,7.9-3.9,7.9-8v-5.8h9.5v7.5
		c0,4.8-2.2,8.8-6.3,10.8c4.1,2.1,6.3,6,6.3,10.9v7.5h-9.5V74.9z"/>
	<g>
		<path class="st1" d="M385.1,33.3H384v1.8h-0.8v-4.8h1.7c1.2,0,1.8,0.4,1.8,1.5c0,0.8-0.2,1.2-0.8,1.4l0.9,1.9H386L385.1,33.3z
			 M384,32.6h1.1c0.6,0,0.9-0.2,0.9-0.9c0-0.6-0.3-0.8-1.1-0.8H384V32.6z"/>
	</g>
	<g>
		<path class="st2" d="M164.8,80.8l7.4,0V62.6c0-0.5,0-1.1-0.1-1.6C169.1,67.3,166.6,73.9,164.8,80.8z"/>
		<path class="st2" d="M222.8,47.7c-2.8-2.9-6.4-4.3-10.7-4.3c-9.6,0-17.5,8.6-17.5,19.1c0,10.6,7.7,19.1,18.8,19.1
			c11,0,18.8-8.5,18.8-19.1V27.9h-9.4V47.7z M213.4,72.9c-5.2,0-9.4-4.5-9.4-10.3c0-6,4.2-10.5,9.4-10.5c5.2,0,9.4,4.7,9.4,10.5
			C222.8,68.3,218.6,72.9,213.4,72.9z"/>
		<path class="st2" d="M175.3,59.6v21.2h9.4V59.6c0-5.2,4-8.4,10-7.3v-8.8C182.5,42,175.3,49.3,175.3,59.6z"/>
		<path class="st2" d="M291.4,44.2H282v21.4c0,4.1-3,7-7.1,7c-6.2,0-6.9-4.9-6.9-7V44.2h-9.4v21.4c0,4.1-2.9,7-7.1,7
			c-6.1,0-6.8-4.9-6.8-7V44.2h-9.4v21.1c0,9.7,6,16.4,16.2,16.4c4.8,0,8.9-2,11.7-5.2c2.7,3.2,6.8,5.2,11.7,5.2
			c1.9,0,3.7-0.3,5.3-0.7c3-7.7,6.7-14.9,11.2-21.7L291.4,44.2z"/>
	</g>
	<path class="st3" d="M112.7,43.3c-11.1,0-18.8,8.7-18.8,19.3c0,10.5,7.9,19,17.6,19c4.4,0,8.4-1.6,11.2-4.6v3.8h8.9V62.6
		C131.5,52,123.7,43.3,112.7,43.3z M112.7,72.9c-5.2,0-9.4-4.5-9.4-10.3c0-6,4.2-10.5,9.4-10.5c5.2,0,9.4,4.7,9.4,10.5
		C122.1,68.3,117.9,72.9,112.7,72.9z"/>
	<path class="st3" d="M95.3,76.3c5.8,7.6,18.2,7.7,18.2,7.7s-10.3,1.9-18.9-3.7c-5.4-3.5-7-7.5-7-7.5s-0.4-1.3-1.3-0.8
		c-1.9,1.2,0.1,5,1.2,9.1c1,3.5-4.6-6.7-8.4-7.1c-0.4,0-0.8,0.1-1.1,0.4c-3.9,3.9-8,9.9-7.4,7c1.1-5.3,5.7-11.8,2.9-14.3
		c-1.4-1.3-3.4-2-5.7-2c-2.7,0-5.1,1.2-6,3c-1.8,2.5,1.2,9,1.7,13.1c0.3,2.7-2.6-2.4-5.8-6.5c-0.1-0.1-0.1-0.1-0.2-0.2
		c-0.1-0.1-0.1-0.1-0.2-0.2c-2.3-2.5-8.6,9.9-7.9,6.3c0.5-2.7,2.7-7.5,3-10.4c0-0.2-0.2-0.5-0.4-0.4c-0.4,0.1-0.9,0.3-1.5,0.5
		c-8,4.1-10.7,10.1-10.7,10.1l-0.6,3.2c0,0-1.3-0.1-2.1-0.6c-1.1-0.6-1.9-1.5-1.9-1.5l2-2c0,0,1.3-5.3,2.8-9.7
		c1.2-3.4,2.8-6.2,2.8-6.2s-2.1-6.2-2.8-10.3c-0.7-3.9,0-5.7,0-5.7s1.2,2.2,2.8,1.7c1.4-0.4,3.1-3.6,3.1-3.6s1.3,1.8,1.3,5
		c0,3.6-1.4,8.6-1.4,8.6s8.8-14,22-16.1c17.2-2.8,24.5,9,24.5,9S86.9,65.3,95.3,76.3z"/>
	<path class="st3" d="M153.4,43.3c-11.1,0-18.8,8.7-18.8,19.3c0,10.5,7.9,19,17.6,19c4.4,0,8.4-1.6,11.2-4.6v3.8h1.5
		c1.8-6.9,4.3-13.5,7.3-19.9C171.4,51.1,163.9,43.3,153.4,43.3z M153.4,72.9c-5.2,0-9.4-4.5-9.4-10.3c0-6,4.2-10.5,9.4-10.5
		c5.2,0,9.4,4.7,9.4,10.5C162.8,68.3,158.6,72.9,153.4,72.9z"/>
	<path class="st1" d="M385,28.7c2.2,0,4,1.8,4,4s-1.8,4-4,4c-2.2,0-4-1.8-4-4S382.9,28.7,385,28.7 M385,27.9c-2.6,0-4.7,2.1-4.7,4.7
		s2.1,4.7,4.7,4.7s4.7-2.1,4.7-4.7S387.6,27.9,385,27.9L385,27.9z"/>
	<path class="st0" d="M354.6,43.5v8.8c-6-1.1-10,2.1-10,7.3v21.2h-9.4V59.6C335.3,49.3,342.5,42,354.6,43.5z"/>
	<path class="st0" d="M280.2,81c3-7.7,6.7-14.9,11.2-21.7v6C291.4,72.9,287.1,79,280.2,81z"/>
	<path class="st0" d="M313.4,43.3c-11.1,0-18.8,8.7-18.8,19.3c0,10.5,7.9,19,17.6,19c4.4,0,8.4-1.6,11.2-4.6v3.8h8.9V62.6
		C332.2,52,324.4,43.3,313.4,43.3z M313.4,72.9c-5.2,0-9.4-4.5-9.4-10.3c0-6,4.2-10.5,9.4-10.5c5.2,0,9.4,4.7,9.4,10.5
		C322.8,68.3,318.6,72.9,313.4,72.9z"/>
</g>
</svg>
